<svg width="6256" height="6138" viewBox="0 0 6256 6138" fill="none" xmlns="http://www.w3.org/2000/svg">
    <path fill-rule="evenodd" clip-rule="evenodd"
        d="M3055.11 4.14428C3033.75 5.78847 3002.3 9.24549 2985.22 11.826C2968.13 14.4066 2944.78 18.4272 2933.33 20.7615C2921.88 23.0935 2901.91 27.6023 2888.95 30.7797C2876 33.9572 2854.91 39.8572 2842.1 43.8911C2829.28 47.925 2811.31 53.8805 2802.16 57.1267C2793.01 60.3751 2776.53 66.5702 2765.55 70.8948C2754.56 75.2194 2727.1 87.7228 2704.53 98.6797C2681.95 109.637 2653.99 124.144 2642.4 130.916C2630.81 137.688 2607.84 152.215 2591.36 163.196C2574.89 174.177 2555.42 187.717 2548.1 193.286C2540.77 198.856 2523.47 212.781 2509.65 224.233C2495.83 235.685 2477.46 251.703 2468.84 259.83C2460.22 267.956 2443.95 284.092 2432.69 295.685C2421.44 307.279 2404.83 325.252 2395.78 335.625C2386.74 345.998 2372.25 363.472 2363.6 374.456C2354.95 385.439 2338.19 408.72 2326.37 426.191C2314.54 443.66 2297.88 470.12 2289.34 484.991C2280.8 499.86 2266.88 526.218 2258.41 543.561C2249.95 560.906 2238.66 585.868 2233.32 599.033C2227.99 612.2 2220.57 631.458 2216.83 641.831C2213.09 652.204 2206.54 672.174 2202.27 686.208C2198 700.243 2192.89 718.216 2190.92 726.148C2188.95 734.081 2185.36 749.557 2182.96 760.541C2180.55 771.524 2176.65 791.994 2174.29 806.028C2171.92 820.062 2168.2 847.022 2166.02 865.938C2163.04 891.852 2162.07 917.016 2162.12 968.006C2162.16 1018.75 2163.16 1043.73 2166.1 1067.86C2168.25 1085.55 2172.41 1114.01 2175.34 1131.09C2178.28 1148.18 2183.22 1173.14 2186.33 1186.57C2189.43 1199.99 2194.57 1219.96 2197.74 1230.94C2200.92 1241.93 2206.54 1259.9 2210.23 1270.88C2213.92 1281.87 2222.43 1304.83 2229.13 1321.92C2235.84 1339 2248 1366.97 2256.16 1384.06C2264.32 1401.14 2278.82 1428.6 2288.38 1445.07C2297.94 1461.55 2315.54 1489.5 2327.5 1507.19C2339.45 1524.89 2358.32 1550.82 2369.43 1564.81C2380.53 1578.8 2401.81 1603.66 2416.71 1620.05C2431.62 1636.45 2456.79 1661.54 2472.65 1675.81C2488.52 1690.08 2511.98 1710.18 2524.8 1720.48C2537.61 1730.78 2558.04 1746.16 2570.19 1754.67C2582.34 1763.17 2597.32 1773.32 2603.47 1777.21C2609.63 1781.11 2627.18 1791.68 2642.48 1800.71C2657.78 1809.74 2684.74 1824.2 2702.39 1832.84C2720.04 1841.48 2745.84 1853.16 2759.73 1858.8C2773.61 1864.44 2796.58 1873.05 2810.76 1877.95C2824.94 1882.85 2845.54 1889.39 2856.52 1892.5C2867.5 1895.6 2883.48 1899.91 2892.02 1902.08C2900.57 1904.25 2918.04 1908.13 2930.85 1910.71C2943.67 1913.28 2966.63 1917.35 2981.89 1919.74C2997.14 1922.14 3030.09 1925.79 3055.11 1927.85C3088.89 1930.65 3112.3 1931.26 3146.08 1930.23C3171.1 1929.47 3206.05 1927.38 3223.75 1925.6C3241.44 1923.81 3265.41 1920.75 3277 1918.81C3288.59 1916.86 3308.06 1913.28 3320.27 1910.85C3332.47 1908.41 3355.77 1902.94 3372.05 1898.69C3388.32 1894.44 3415.28 1886.4 3431.96 1880.82C3448.63 1875.24 3473.13 1866.24 3486.4 1860.83C3499.67 1855.41 3515.14 1848.91 3520.79 1846.37C3526.44 1843.84 3544.04 1835.29 3559.91 1827.37C3575.77 1819.46 3598.24 1807.43 3609.83 1800.64C3621.42 1793.85 3640.9 1781.75 3653.1 1773.76C3665.3 1765.76 3686.27 1751.12 3699.7 1741.23C3713.12 1731.34 3733.59 1715.33 3745.18 1705.65C3756.78 1695.97 3780.12 1674.56 3797.05 1658.08C3813.99 1641.61 3837.98 1616.64 3850.37 1602.61C3862.76 1588.57 3877.95 1570.6 3884.12 1562.67C3890.29 1554.73 3903.88 1536.26 3914.32 1521.62C3924.76 1506.97 3941.51 1481.51 3951.54 1465.04C3961.58 1448.56 3979.55 1415.11 3991.48 1390.7C4003.41 1366.3 4016.85 1336.84 4021.35 1325.25C4025.86 1313.65 4030.56 1301.67 4031.81 1298.62C4033.06 1295.57 4038.02 1281.09 4042.83 1266.45C4047.64 1251.8 4054.99 1226.84 4059.16 1210.97C4063.32 1195.11 4068.73 1172.14 4071.18 1159.94C4073.62 1147.74 4077.59 1124.77 4080.01 1108.91C4082.42 1093.04 4085.68 1066.08 4087.25 1049C4088.81 1031.91 4090.1 994.966 4090.12 966.897C4090.14 938.828 4088.85 901.384 4087.27 883.689C4085.68 865.993 4082.38 838.535 4079.95 822.67C4077.51 806.805 4073.13 782.341 4070.21 768.307C4067.3 754.273 4062.32 732.805 4059.15 720.601C4055.99 708.397 4050.47 689.219 4046.88 677.981C4043.3 666.744 4035.48 644.278 4029.49 628.056C4023.51 611.836 4013.96 588.094 4008.27 575.3C4002.58 562.506 3989.89 536.56 3980.06 517.647C3970.23 498.733 3958.65 477.749 3954.34 471.015C3950.02 464.283 3938.98 447.29 3929.8 433.256C3920.62 419.222 3907.09 399.751 3899.72 389.988C3892.36 380.225 3877.8 361.753 3867.38 348.938C3856.95 336.124 3830.44 307.614 3808.45 285.583C3786.47 263.549 3759.99 238.529 3749.62 229.98C3739.25 221.433 3720.28 206.415 3707.46 196.61C3694.65 186.807 3671.18 170.294 3655.32 159.916C3639.45 149.539 3614.99 134.552 3600.96 126.611C3586.92 118.672 3565.44 107.185 3553.21 101.085C3540.99 94.983 3520.52 85.4596 3507.73 79.9213C3494.93 74.383 3471.98 65.3543 3456.73 59.8603C3441.47 54.3664 3423.5 48.1891 3416.79 46.1322C3410.08 44.0753 3397.6 40.3675 3389.05 37.8934C3380.51 35.4216 3365.89 31.5453 3356.57 29.2798C3347.24 27.0165 3329.77 23.1667 3317.74 20.7259C3305.7 18.2852 3282.88 14.3023 3267.01 11.8771C3251.15 9.44961 3217.1 5.91494 3191.36 4.02002C3165.61 2.12509 3133.16 0.705043 3119.24 0.864803C3105.33 1.02456 3076.47 2.50009 3055.11 4.14428ZM3176.42 310.157C3199.4 312.016 3229.18 315.622 3242.61 318.169C3256.03 320.716 3276.58 325.157 3288.26 328.034C3299.95 330.91 3320.92 337.147 3334.86 341.894C3348.8 346.64 3367.2 353.305 3375.74 356.705C3384.28 360.106 3401.26 367.863 3413.46 373.945C3425.66 380.025 3443.64 389.555 3453.4 395.12C3463.16 400.687 3478.64 410.213 3487.79 416.29C3496.95 422.368 3511.92 432.874 3521.08 439.637C3530.23 446.403 3548.2 461.13 3561.02 472.364C3573.83 483.598 3590.38 499.115 3597.79 506.845C3605.2 514.576 3617.76 528.39 3625.7 537.543C3633.64 546.696 3646.12 562.173 3653.44 571.936C3660.76 581.699 3671.26 596.677 3676.77 605.219C3682.28 613.762 3690.99 628.005 3696.13 636.872C3701.27 645.736 3710.34 662.711 3716.27 674.593C3722.21 686.473 3731.5 707.177 3736.92 720.601C3742.35 734.025 3748.89 751.499 3751.46 759.432C3754.03 767.364 3759.04 784.838 3762.61 798.262C3766.17 811.686 3771.15 834.152 3773.67 848.187C3776.2 862.221 3779.52 885.187 3781.05 899.221C3782.58 913.255 3783.84 943.71 3783.84 966.897C3783.84 990.084 3782.61 1020.04 3781.1 1033.46C3779.59 1046.89 3776.34 1068.85 3773.89 1082.28C3771.43 1095.7 3767.84 1113.18 3765.91 1121.11C3763.98 1129.04 3758.92 1147.01 3754.67 1161.05C3750.42 1175.08 3743.44 1195.55 3739.17 1206.54C3734.9 1217.52 3723.99 1241.33 3714.93 1259.46C3705.87 1277.58 3691.46 1303.44 3682.91 1316.91C3674.35 1330.39 3660.25 1350.87 3651.57 1362.42C3642.89 1373.97 3625.62 1394.54 3613.2 1408.14C3600.79 1421.74 3583.21 1439.76 3574.16 1448.19C3565.1 1456.62 3547.86 1471.38 3535.86 1480.98C3523.86 1490.58 3501.39 1506.72 3485.94 1516.84C3470.48 1526.96 3448.23 1540.38 3436.48 1546.66C3424.74 1552.94 3405.77 1562.18 3394.32 1567.2C3382.88 1572.22 3365.53 1579.34 3355.77 1583.04C3346.01 1586.74 3331.53 1591.73 3323.6 1594.13C3315.66 1596.53 3300.19 1600.83 3289.2 1603.67C3278.22 1606.52 3258.25 1610.9 3244.83 1613.41C3231.4 1615.92 3205.18 1619.51 3186.56 1621.38C3167.94 1623.26 3139.98 1624.79 3124.43 1624.78C3108.88 1624.76 3078.69 1622.79 3057.33 1620.39C3035.97 1617.99 3006.55 1613.53 2991.94 1610.48C2977.34 1607.43 2955.87 1602.24 2944.24 1598.97C2932.6 1595.69 2912.6 1589.14 2899.79 1584.4C2886.98 1579.68 2872.5 1574.12 2867.62 1572.05C2862.73 1569.98 2846.26 1562.11 2831 1554.55C2815.75 1546.98 2793.28 1534.58 2781.08 1526.97C2768.88 1519.37 2745.41 1503.15 2728.94 1490.93C2708.32 1475.64 2687.16 1456.89 2661.09 1430.82C2635.08 1404.8 2615.92 1383.18 2599.98 1361.86C2587.22 1344.77 2570.21 1319.81 2562.18 1306.39C2554.16 1292.96 2544.04 1274.99 2539.69 1266.45C2535.34 1257.9 2528.83 1244.42 2525.22 1236.49C2521.61 1228.56 2515.96 1215.08 2512.67 1206.54C2509.38 1197.99 2505.39 1187.51 2503.8 1183.24C2502.21 1178.97 2497.35 1162.99 2493 1147.74C2488.66 1132.48 2483.1 1110.01 2480.66 1097.81C2478.21 1085.61 2474.46 1063.64 2472.32 1049C2469.44 1029.24 2468.44 1008.06 2468.43 966.897C2468.42 926.216 2469.45 904.029 2472.28 883.689C2474.41 868.434 2478.2 845.968 2480.71 833.764C2483.22 821.56 2488.67 799.593 2492.82 784.949C2496.97 770.304 2503.91 748.836 2508.23 737.243C2512.56 725.649 2517.78 712.169 2519.83 707.288C2521.88 702.406 2530.39 684.764 2538.72 668.08C2547.06 651.399 2562.63 624.439 2573.33 608.17C2584.03 591.904 2601.11 568.108 2611.28 555.294C2621.45 542.48 2643.85 517.951 2661.05 500.785C2678.25 483.618 2702.59 461.416 2715.14 451.446C2727.7 441.475 2749.16 425.938 2762.85 416.918C2776.54 407.899 2796.74 395.535 2807.74 389.442C2818.75 383.349 2835.22 374.873 2844.35 370.606C2853.49 366.337 2872.44 358.262 2886.48 352.662C2900.51 347.061 2924.47 338.885 2939.73 334.494C2954.98 330.1 2981.94 323.65 2999.64 320.157C3017.33 316.663 3044.79 312.711 3060.66 311.373C3076.52 310.033 3094 308.628 3099.49 308.246C3104.98 307.867 3115.14 307.381 3122.06 307.168C3128.98 306.955 3153.44 308.3 3176.42 310.157ZM4791.39 451.28C4779.18 454.934 4753.22 462.778 4733.69 468.714C4714.17 474.647 4688.21 482.171 4676 485.433C4663.8 488.695 4622.86 500.355 4585.03 511.341C4547.2 522.328 4515.96 531.592 4515.6 531.927C4515.25 532.265 4517.07 539.904 4519.66 548.908C4522.24 557.913 4528.26 579.529 4533.04 596.947C4537.81 614.365 4543.26 635.833 4545.15 644.653C4547.03 653.473 4550.63 670.676 4553.15 682.88C4555.66 695.084 4559.11 713.556 4560.8 723.929C4562.49 734.303 4566.3 761.761 4569.27 784.949C4572.24 808.136 4575.89 844.581 4577.39 865.938C4578.89 887.295 4580.13 930.729 4580.14 962.459C4580.16 994.189 4578.98 1037.62 4577.52 1058.98C4576.07 1080.34 4572.86 1114.29 4570.38 1134.42C4567.91 1154.56 4564.41 1180.02 4562.61 1191C4560.8 1201.99 4557.32 1221.46 4554.86 1234.27C4552.4 1247.09 4548.82 1264.56 4546.89 1273.1C4544.97 1281.65 4541.1 1297.62 4538.3 1308.6C4535.5 1319.59 4531.76 1334.07 4529.98 1340.78C4528.21 1347.49 4524.56 1360.47 4521.87 1369.62C4519.18 1378.78 4511.52 1402.49 4504.85 1422.33C4498.18 1442.17 4487.41 1471.62 4480.92 1487.79C4474.43 1503.95 4463.31 1530.16 4456.21 1546.03C4449.11 1561.89 4434.63 1591.84 4424.04 1612.59C4413.45 1633.34 4396.02 1665.29 4385.31 1683.6C4374.6 1701.9 4354.97 1733.19 4341.7 1753.13C4328.42 1773.06 4307.74 1802.52 4295.73 1818.58C4283.73 1834.65 4265.19 1858.28 4254.54 1871.09C4243.89 1883.91 4227.52 1903.07 4218.17 1913.68C4208.81 1924.28 4181.19 1952.81 4156.79 1977.06C4132.38 2001.32 4100.93 2031.14 4086.89 2043.34C4072.86 2055.54 4051.2 2073.69 4038.77 2083.68C4026.34 2093.67 4001.88 2112.1 3984.41 2124.63C3966.94 2137.17 3945.66 2152.02 3937.12 2157.64C3928.57 2163.27 3914.59 2172.35 3906.05 2177.83C3897.51 2183.31 3874.73 2196.91 3855.43 2208.06C3836.14 2219.21 3802.69 2237.17 3781.1 2247.97C3759.52 2258.77 3727.88 2273.63 3710.79 2280.99C3693.7 2288.35 3673.03 2297 3664.85 2300.21C3656.68 2303.42 3638.84 2310.04 3625.22 2314.92C3611.6 2319.8 3593.33 2326.18 3584.62 2329.1C3575.91 2332.03 3561.79 2336.48 3553.25 2339C3544.71 2341.52 3527.23 2346.56 3514.42 2350.2C3501.61 2353.84 3473.15 2360.79 3451.18 2365.64C3429.21 2370.49 3403.25 2375.99 3393.49 2377.86C3383.73 2379.73 3365.25 2382.84 3352.44 2384.78C3339.63 2386.72 3312.37 2390.26 3291.88 2392.65C3271.39 2395.04 3238.44 2397.97 3218.66 2399.18C3198.88 2400.38 3157.24 2401.36 3126.12 2401.36C3095 2401.36 3053.56 2400.39 3034.03 2399.2C3014.51 2398.01 2981.06 2395.06 2959.7 2392.65C2938.34 2390.23 2908.39 2386.27 2893.13 2383.85C2877.88 2381.42 2852.42 2376.82 2836.55 2373.63C2820.69 2370.44 2797.22 2365.32 2784.41 2362.26C2771.59 2359.19 2750.13 2353.66 2736.7 2349.97C2723.28 2346.28 2701.31 2339.84 2687.89 2335.65C2674.46 2331.47 2652 2323.99 2637.96 2319.04C2623.93 2314.08 2600.96 2305.49 2586.93 2299.95C2572.89 2294.4 2549.93 2284.88 2535.89 2278.79C2521.86 2272.69 2492.9 2258.94 2471.55 2248.23C2450.19 2237.52 2421.23 2222.32 2407.2 2214.46C2393.16 2206.59 2372.19 2194.4 2360.6 2187.35C2349.01 2180.31 2330.54 2168.51 2319.55 2161.12C2308.57 2153.74 2294.59 2144.19 2288.49 2139.9C2282.39 2135.62 2272.4 2128.57 2266.3 2124.25C2260.2 2119.93 2241.23 2105.47 2224.14 2092.13C2207.05 2078.78 2179.74 2056.34 2163.43 2042.26C2147.13 2028.17 2116.17 1999.11 2094.65 1977.68C2073.12 1956.25 2045.48 1927.25 2033.23 1913.23C2020.98 1899.2 2003.96 1879.25 1995.41 1868.87C1986.86 1858.5 1972.33 1840.03 1963.11 1827.82C1953.9 1815.62 1940.93 1798.15 1934.3 1788.99C1927.66 1779.84 1916.39 1763.36 1909.25 1752.38C1902.1 1741.4 1894.01 1728.92 1891.27 1724.64C1888.52 1720.37 1882.83 1711.38 1878.62 1704.66C1874.41 1697.94 1868.14 1687.45 1864.68 1681.36C1861.22 1675.27 1853.45 1661.3 1847.41 1650.31C1841.38 1639.33 1828.69 1614.87 1819.22 1595.95C1809.75 1577.03 1796.75 1549.58 1790.34 1534.93C1783.92 1520.29 1772.76 1492.83 1765.54 1473.91C1758.32 1455 1748.58 1428.04 1743.91 1414C1739.23 1399.97 1733.23 1381 1730.56 1371.84C1727.9 1362.69 1724.38 1350.71 1722.75 1345.22C1721.12 1339.72 1716.24 1320.75 1711.9 1303.06C1707.55 1285.36 1701.54 1257.9 1698.52 1242.04C1695.51 1226.17 1691.5 1204.21 1689.6 1193.22C1687.71 1182.24 1684.66 1162.27 1682.83 1148.85C1681 1135.42 1677.8 1105.47 1675.73 1082.28C1673.13 1053.15 1671.93 1016.8 1671.85 964.678C1671.77 910.546 1672.82 877.014 1675.57 845.968C1677.68 822.17 1681.82 785.725 1684.77 764.979C1687.72 744.232 1692.76 713.279 1695.97 696.193C1699.18 679.108 1703.88 656.143 1706.42 645.159C1708.96 634.176 1714.46 612.209 1718.63 596.344C1722.81 580.479 1728.27 561.194 1730.78 553.488C1733.28 545.782 1734.98 539.141 1734.55 538.728C1734.12 538.316 1664.48 517.886 1579.79 493.33C1495.11 468.773 1425.35 449.152 1424.77 449.729C1424.2 450.304 1420.27 462.561 1416.06 476.964C1411.84 491.366 1404 520.427 1398.63 541.544C1393.25 562.661 1385.37 597.109 1381.11 618.095C1376.85 639.082 1371.82 665.36 1369.93 676.49C1368.05 687.622 1364.53 710.911 1362.12 728.245C1359.71 745.579 1355.52 781.904 1352.81 808.968C1348.5 852.112 1347.89 871.012 1347.89 962.459C1347.88 1053.79 1348.5 1072.95 1352.81 1116.67C1355.53 1144.13 1359.68 1180.08 1362.05 1196.55C1364.42 1213.03 1367.95 1236.49 1369.9 1248.69C1371.85 1260.9 1375.87 1282.87 1378.83 1297.51C1381.78 1312.15 1387.16 1337.12 1390.77 1352.98C1394.38 1368.85 1400.97 1395.31 1405.42 1411.78C1409.87 1428.26 1415.54 1448.23 1418.01 1456.16C1420.49 1464.09 1428.5 1488.56 1435.8 1510.52C1443.1 1532.49 1452.56 1559.45 1456.82 1570.43C1461.08 1581.42 1467.1 1596.89 1470.2 1604.83C1473.3 1612.76 1477.58 1623.24 1479.71 1628.12C1481.83 1633.01 1487.91 1646.98 1493.2 1659.19C1498.5 1671.39 1513.55 1702.84 1526.65 1729.08C1539.76 1755.32 1554.6 1784.28 1559.63 1793.43C1564.66 1802.58 1571.7 1814.83 1575.27 1820.64C1578.85 1826.46 1581.77 1831.59 1581.77 1832.04C1581.77 1832.49 1588.39 1843.71 1596.47 1856.97C1604.55 1870.23 1622.11 1897.45 1635.49 1917.46C1648.87 1937.47 1669.38 1966.93 1681.08 1982.92C1692.77 1998.91 1711.53 2023.47 1722.77 2037.51C1734.01 2051.54 1755.65 2077.5 1770.86 2095.2C1786.07 2112.89 1816.37 2145.71 1838.19 2168.12C1860.01 2190.54 1892.87 2222.5 1911.21 2239.15C1929.55 2255.79 1950.47 2274.4 1957.7 2280.49C1964.93 2286.59 1977.42 2297.11 1985.45 2303.88C1993.48 2310.65 2012.52 2325.71 2027.78 2337.34C2043.03 2348.96 2064.49 2364.96 2075.47 2372.88C2086.46 2380.8 2110.42 2397.29 2128.73 2409.51C2147.03 2421.73 2176.99 2440.74 2195.29 2451.75C2213.6 2462.75 2234.07 2474.77 2240.78 2478.44C2247.49 2482.12 2263.97 2491.06 2277.39 2498.32C2290.82 2505.58 2317.5 2519.19 2336.68 2528.57C2355.87 2537.96 2372.05 2545.63 2372.64 2545.63C2373.23 2545.63 2380 2548.55 2387.68 2552.12C2395.36 2555.69 2412.13 2563.05 2424.95 2568.47C2437.76 2573.9 2459.23 2582.6 2472.65 2587.8C2486.08 2593 2511.04 2602.15 2528.13 2608.14C2545.21 2614.12 2575.17 2623.84 2594.69 2629.74C2614.22 2635.64 2637.68 2642.55 2646.84 2645.09C2655.99 2647.62 2677.96 2653.14 2695.65 2657.35C2713.35 2661.56 2734.82 2666.54 2743.36 2668.41C2751.9 2670.27 2766.88 2673.35 2776.64 2675.23C2786.4 2677.12 2805.88 2680.59 2819.91 2682.96C2833.94 2685.32 2860.4 2689.32 2878.71 2691.85C2897.02 2694.38 2926.97 2697.94 2945.28 2699.78C2963.58 2701.61 2996.53 2704.11 3018.5 2705.32C3040.47 2706.53 3087.4 2707.52 3122.79 2707.52C3158.18 2707.52 3205.11 2706.53 3227.07 2705.32C3249.04 2704.11 3281.99 2701.59 3300.3 2699.73C3318.6 2697.87 3348.56 2694.33 3366.86 2691.86C3385.17 2689.39 3414.13 2684.95 3431.21 2681.99C3448.3 2679.04 3469.27 2675.19 3477.81 2673.44C3486.35 2671.68 3500.83 2668.72 3509.98 2666.86C3519.13 2664.99 3541.1 2659.83 3558.8 2655.39C3576.49 2650.95 3606.45 2642.85 3625.36 2637.4C3644.28 2631.95 3677.65 2621.47 3699.52 2614.13C3721.38 2606.79 3755.33 2594.48 3774.96 2586.77C3794.58 2579.07 3821.12 2568.26 3833.94 2562.76C3846.75 2557.25 3872.68 2545.56 3891.54 2536.78C3910.41 2528 3937.37 2514.77 3951.45 2507.38C3965.54 2499.99 3978.05 2493.23 3979.28 2492.34C3980.5 2491.47 3990.48 2485.94 4001.46 2480.06C4012.45 2474.18 4036.91 2459.92 4055.83 2448.37C4074.74 2436.82 4102.2 2419.37 4116.85 2409.59C4131.49 2399.81 4153.96 2384.29 4166.77 2375.11C4179.58 2365.93 4198.06 2352.42 4207.82 2345.08C4217.58 2337.73 4236.05 2323.23 4248.87 2312.84C4261.68 2302.45 4278.09 2288.92 4285.32 2282.78C4292.56 2276.63 4310.03 2261.21 4324.15 2248.5C4338.27 2235.8 4363.16 2212.33 4379.45 2196.36C4395.75 2180.38 4423.71 2151.34 4441.61 2131.81C4459.5 2112.28 4484.13 2084.33 4496.33 2069.68C4508.53 2055.04 4524.07 2036.06 4530.87 2027.52C4537.66 2018.98 4554.48 1996.54 4568.23 1977.65C4581.98 1958.76 4602.5 1929.3 4613.82 1912.19C4625.14 1895.08 4643.02 1866.73 4653.54 1849.19C4664.07 1831.65 4672.68 1817 4672.68 1816.64C4672.68 1816.27 4677.77 1807.15 4684.01 1796.38C4690.24 1785.6 4705.99 1755.32 4719.02 1729.08C4732.04 1702.84 4746.87 1671.89 4751.96 1660.3C4757.05 1648.7 4764.32 1631.73 4768.12 1622.58C4771.92 1613.42 4777.53 1599.44 4780.58 1591.51C4783.64 1583.58 4787.54 1573.59 4789.26 1569.32C4790.98 1565.05 4793.94 1557.06 4795.83 1551.57C4797.73 1546.08 4804.36 1526.61 4810.58 1508.3C4816.8 1490 4823.8 1468.53 4826.13 1460.6C4828.47 1452.67 4832.91 1437.19 4835.99 1426.21C4839.07 1415.22 4844.46 1394.75 4847.97 1380.72C4851.48 1366.68 4856.86 1343.72 4859.92 1329.68C4862.99 1315.65 4866.53 1298.68 4867.79 1291.96C4869.05 1285.25 4872.56 1265.28 4875.59 1247.59C4878.62 1229.89 4883.08 1199.93 4885.5 1181.02C4887.92 1162.1 4891.67 1128.15 4893.84 1105.58C4896.99 1072.87 4897.78 1043.78 4897.73 962.459C4897.67 873.917 4897.01 853.774 4892.75 810.466C4890.04 783.007 4886.32 749.558 4884.46 736.133C4882.61 722.709 4879.09 699.244 4876.63 683.99C4874.18 668.735 4868.64 638.795 4864.31 617.456C4859.99 596.12 4852.5 563.169 4847.65 544.233C4842.81 525.3 4835.29 497.326 4830.93 482.071C4826.58 466.816 4822.17 452.088 4821.12 449.343C4820.08 446.598 4817.96 444.415 4816.4 444.495C4814.85 444.572 4803.59 447.628 4791.39 451.28ZM5335.24 1115.01C5334.57 1122.64 5333.44 1136.86 5332.72 1146.63C5332.01 1156.39 5329.46 1182.35 5327.05 1204.32C5324.64 1226.28 5320.72 1257.96 5318.33 1274.71C5315.94 1291.46 5311.44 1319.91 5308.35 1337.94C5305.25 1355.98 5300.19 1383.21 5297.12 1398.47C5294.04 1413.72 5289.53 1434.69 5287.1 1445.07C5284.66 1455.44 5279.66 1476.41 5275.98 1491.66C5272.3 1506.92 5267.21 1526.89 5264.67 1536.04C5262.13 1545.19 5257.1 1562.67 5253.49 1574.87C5249.89 1587.07 5245.64 1601.55 5244.04 1607.04C5242.45 1612.54 5236.96 1629.93 5231.85 1645.69C5226.74 1661.45 5215.53 1693.4 5206.93 1716.69C5198.33 1739.98 5189.61 1763.53 5187.54 1769.02C5185.48 1774.51 5181.18 1785 5178 1792.32C5174.81 1799.64 5166.2 1819.61 5158.85 1836.7C5151.51 1853.78 5144.2 1870.68 5142.62 1874.24C5141.04 1877.81 5127.07 1906.34 5111.58 1937.65C5096.09 1968.96 5077.22 2005.49 5069.64 2018.82C5062.07 2032.15 5053.91 2046.55 5051.51 2050.82C5049.11 2055.09 5042.44 2066.57 5036.68 2076.34C5030.92 2086.1 5019.43 2105.07 5011.15 2118.5C5002.87 2131.92 4990.51 2151.39 4983.69 2161.76C4976.87 2172.14 4962.36 2193.61 4951.45 2209.47C4940.54 2225.34 4921.59 2251.8 4909.34 2268.27C4897.09 2284.75 4879.59 2307.71 4870.45 2319.3C4861.3 2330.9 4841.33 2355.36 4826.05 2373.67C4810.77 2391.97 4797.72 2407.45 4797.05 2408.06C4796.37 2408.67 4787.84 2418.15 4778.07 2429.14C4768.31 2440.12 4745.43 2464.58 4727.23 2483.5C4709.03 2502.42 4678.53 2532.87 4659.46 2551.18C4640.39 2569.48 4612.84 2595 4598.25 2607.88C4583.66 2620.75 4559.73 2641.28 4545.09 2653.5C4530.45 2665.72 4502.99 2687.69 4484.07 2702.33C4465.15 2716.96 4437.2 2737.91 4421.94 2748.89C4406.69 2759.87 4376.22 2780.78 4354.24 2795.37C4332.26 2809.95 4309.3 2825.02 4303.21 2828.86C4297.12 2832.7 4277.86 2844.43 4260.4 2854.93C4242.95 2865.43 4228.3 2874.03 4227.85 2874.03C4227.4 2874.03 4218.22 2879.16 4207.44 2885.44C4196.67 2891.71 4161.89 2909.99 4130.16 2926.06C4098.43 2942.13 4063.48 2959.39 4052.5 2964.41C4041.51 2969.44 4026.54 2976.2 4019.21 2979.45C4011.89 2982.69 3988.93 2992.32 3968.18 3000.84C3947.43 3009.37 3910.49 3023.65 3886.08 3032.58C3861.67 3041.52 3826.73 3053.51 3808.42 3059.24C3790.12 3064.97 3772.64 3070.58 3769.59 3071.7C3766.54 3072.82 3748.31 3078.15 3729.07 3083.56C3709.84 3088.96 3681.89 3096.39 3666.95 3100.06C3652.01 3103.74 3631.3 3108.76 3620.93 3111.21C3610.55 3113.67 3584.59 3119.17 3563.23 3123.42C3541.88 3127.68 3512.92 3133.16 3498.89 3135.6C3484.85 3138.04 3459.39 3142.05 3442.31 3144.5C3425.22 3146.95 3398.26 3150.5 3382.4 3152.39C3366.53 3154.27 3330.09 3157.88 3301.41 3160.39C3263.93 3163.68 3222.73 3165.32 3154.96 3166.21C3098.13 3166.96 3040.82 3166.47 3010.73 3164.99C2983.27 3163.64 2938.84 3160.52 2911.99 3158.06C2885.14 3155.6 2860.68 3153.1 2857.63 3152.5C2854.58 3151.91 2843.6 3150.45 2833.22 3149.26C2822.85 3148.07 2801.38 3145.15 2785.52 3142.76C2769.65 3140.38 2747.19 3136.78 2735.59 3134.78C2724 3132.77 2699.54 3128.15 2681.23 3124.49C2662.92 3120.84 2636.96 3115.38 2623.54 3112.35C2610.11 3109.32 2583.38 3102.85 2564.14 3097.96C2544.89 3093.08 2520.43 3086.59 2509.77 3083.53C2499.12 3080.47 2481.92 3075.4 2471.55 3072.26C2461.17 3069.11 2435.21 3060.76 2413.85 3053.68C2392.5 3046.61 2365.54 3037.36 2353.94 3033.13C2342.35 3028.9 2323.38 3021.79 2311.79 3017.32C2300.19 3012.86 2288.71 3008.29 2286.27 3007.18C2283.83 3006.07 2271.85 3001.08 2259.64 2996.09C2247.44 2991.09 2233.46 2985.18 2228.58 2982.94C2223.7 2980.7 2206.72 2973.06 2190.86 2965.96C2174.99 2958.86 2141.04 2942.42 2115.41 2929.43C2089.79 2916.44 2062.83 2902.54 2055.5 2898.54C2048.18 2894.55 2025.72 2881.74 2005.58 2870.08C1985.44 2858.43 1957.49 2841.84 1943.45 2833.23C1929.42 2824.62 1904.45 2808.65 1887.98 2797.74C1871.5 2786.83 1844.05 2767.93 1826.96 2755.73C1809.87 2743.53 1780.92 2722.03 1762.61 2707.94C1744.31 2693.86 1723.34 2677.42 1716.02 2671.42C1708.69 2665.42 1697.78 2656.38 1691.77 2651.33C1685.76 2646.28 1668.78 2631.81 1654.05 2619.16C1639.32 2606.51 1610.33 2580.05 1589.64 2560.36C1568.96 2540.66 1538.93 2511.07 1522.92 2494.6C1506.91 2478.12 1485.89 2456.13 1476.22 2445.71C1466.54 2435.31 1446.8 2413.05 1432.35 2396.25C1417.89 2379.46 1395.53 2352.53 1382.65 2336.41C1369.77 2320.29 1346.57 2290.13 1331.1 2269.38C1315.63 2248.63 1292.46 2216.18 1279.6 2197.27C1266.75 2178.35 1246.74 2147.9 1235.15 2129.59C1223.55 2111.28 1204.07 2078.83 1191.86 2057.48C1179.64 2036.12 1165.06 2010.16 1159.44 1999.79C1153.82 1989.41 1139.8 1961.95 1128.27 1938.77C1116.75 1915.58 1104.2 1889.85 1100.4 1881.58C1096.6 1873.31 1086.49 1850.46 1077.93 1830.79C1069.37 1811.12 1056.82 1780.93 1050.02 1763.72C1043.23 1746.5 1033.75 1721.43 1028.95 1708C1024.16 1694.58 1016.4 1672.11 1011.71 1658.08C1007.02 1644.04 999.641 1621.08 995.304 1607.04C990.968 1593.01 983.907 1569.05 979.614 1553.79C975.32 1538.54 968.238 1511.59 963.875 1493.91C959.513 1476.23 953.553 1450.77 950.629 1437.33C947.706 1423.89 943.788 1405.4 941.92 1396.25C940.053 1387.1 936.53 1368.63 934.091 1355.2C931.653 1341.78 927.645 1317.81 925.185 1301.95C922.726 1286.08 919.196 1261.62 917.343 1247.59C915.488 1233.55 911.956 1202.34 909.493 1178.23C907.03 1154.11 905.015 1130.79 905.015 1126.4C905.015 1119.24 904.496 1118.53 900.023 1119.59C897.276 1120.25 822.402 1136.03 733.633 1154.67L572.234 1188.57L573.505 1204.21C574.204 1212.81 576.712 1236.32 579.077 1256.46C581.442 1276.6 585.374 1307.05 587.813 1324.14C590.251 1341.22 594.303 1367.68 596.819 1382.94C599.335 1398.19 605.253 1430.14 609.968 1453.94C614.686 1477.74 620.69 1506.7 623.31 1518.29C625.933 1529.88 629.355 1544.86 630.914 1551.57C632.474 1558.28 637.354 1577.76 641.758 1594.84C646.163 1611.93 653.662 1639.38 658.422 1655.86C663.184 1672.33 669.749 1694.8 673.013 1705.78C676.275 1716.77 686.795 1748.72 696.389 1776.79C705.984 1804.86 719.337 1842.3 726.062 1860C732.788 1877.69 740.727 1898.16 743.707 1905.48C746.687 1912.81 753.672 1929.78 759.23 1943.2C764.788 1956.63 772.282 1974.17 775.885 1982.19C779.489 1990.21 786.269 2005.19 790.956 2015.48C795.64 2025.76 812.692 2060.64 828.845 2092.98C845.001 2125.32 862.856 2160.27 868.523 2170.64C874.193 2181.01 890.741 2209.97 905.301 2234.99C919.862 2260.01 940.016 2293.46 950.089 2309.32C960.161 2325.19 977.393 2351.65 988.378 2368.12C999.366 2384.6 1013.25 2405.06 1019.24 2413.61C1025.22 2422.15 1038.11 2440.12 1047.87 2453.55C1057.63 2466.97 1070.64 2484.45 1076.77 2492.38C1082.91 2500.31 1101.42 2523.77 1117.91 2544.52C1134.4 2565.27 1150.52 2585.24 1153.72 2588.9C1156.92 2592.56 1169.38 2607.04 1181.4 2621.07C1193.43 2635.11 1219.95 2664.56 1240.35 2686.53C1260.74 2708.5 1295.73 2744.48 1318.1 2766.5C1340.47 2788.51 1365.79 2812.97 1374.37 2820.86C1382.94 2828.74 1395.05 2839.89 1401.28 2845.63C1407.51 2851.38 1424.46 2866.18 1438.95 2878.54C1453.43 2890.89 1470.77 2905.71 1477.49 2911.47C1484.2 2917.22 1500.17 2930.33 1512.99 2940.58C1525.8 2950.83 1554.26 2972.76 1576.23 2989.32C1598.19 3005.88 1624.65 3025.52 1635.03 3032.97C1645.4 3040.41 1671.86 3058.45 1693.83 3073.05C1715.79 3087.65 1748.25 3108.59 1765.94 3119.59C1783.64 3130.59 1814.59 3149.12 1834.73 3160.78C1854.86 3172.44 1880.82 3187.1 1892.42 3193.36C1904.01 3199.62 1927.48 3211.93 1944.56 3220.71C1961.65 3229.49 1993.6 3245.31 2015.57 3255.85C2037.53 3266.39 2070.98 3281.7 2089.9 3289.88C2108.81 3298.06 2126.29 3305.66 2128.73 3306.77C2131.17 3307.88 2147.14 3314.33 2164.23 3321.09C2181.32 3327.86 2200.29 3335.29 2206.39 3337.61C2212.49 3339.92 2223.97 3344.3 2231.91 3347.35C2239.84 3350.39 2269.29 3360.59 2297.36 3370.01C2325.43 3379.44 2354.39 3388.93 2361.71 3391.1C2369.03 3393.28 2383.51 3397.55 2393.88 3400.59C2404.26 3403.63 2424.23 3409.31 2438.26 3413.2C2452.3 3417.09 2471.27 3422.2 2480.42 3424.57C2489.57 3426.93 2510.04 3431.93 2525.91 3435.68C2541.77 3439.43 2573.72 3446.42 2596.91 3451.21C2620.1 3456 2650.55 3461.95 2664.59 3464.43C2678.62 3466.91 2699.59 3470.41 2711.18 3472.22C2722.78 3474.02 2749.24 3477.87 2769.98 3480.77C2790.73 3483.67 2814.7 3486.7 2823.24 3487.49C2831.78 3488.29 2846.26 3489.87 2855.41 3490.99C2864.56 3492.12 2898.01 3495.09 2929.74 3497.6C2968.88 3500.69 3017.77 3502.56 3081.74 3503.41C3138.46 3504.17 3196.82 3503.69 3228.18 3502.21C3256.86 3500.86 3299.8 3498.24 3323.6 3496.41C3347.39 3494.57 3380.84 3491.52 3397.93 3489.63C3415.01 3487.75 3443.97 3484.25 3462.28 3481.86C3480.58 3479.48 3501.05 3476.54 3507.76 3475.34C3514.47 3474.14 3532.95 3471.07 3548.81 3468.52C3564.68 3465.97 3593.13 3460.87 3612.05 3457.18C3630.97 3453.49 3650.94 3449.57 3656.43 3448.46C3661.92 3447.35 3677.4 3443.97 3690.82 3440.94C3704.24 3437.92 3730.7 3431.47 3749.62 3426.63C3768.54 3421.79 3786.51 3417.15 3789.56 3416.34C3792.61 3415.52 3813.72 3409.53 3836.48 3403.02C3859.23 3396.51 3898.18 3384.56 3923.02 3376.45C3947.86 3368.35 3989.65 3353.72 4015.89 3343.94C4042.12 3334.17 4067.78 3324.29 4072.9 3321.99C4078.02 3319.69 4083.01 3317.77 4084 3317.73C4084.98 3317.68 4089.78 3315.72 4094.66 3313.36C4099.54 3311.01 4104.18 3309.04 4104.98 3309C4105.77 3308.96 4129.1 3298.91 4156.82 3286.68C4184.53 3274.44 4226.82 3254.77 4250.78 3242.98C4274.75 3231.18 4311.33 3212.42 4332.08 3201.27C4352.82 3190.13 4385.77 3171.73 4405.3 3160.4C4424.83 3149.07 4456.28 3130.2 4475.19 3118.46C4494.11 3106.73 4524.56 3087.08 4542.87 3074.81C4561.18 3062.52 4584.64 3046.58 4595.01 3039.37C4605.39 3032.16 4629.35 3014.75 4648.27 3000.68C4667.18 2986.61 4700.13 2961.16 4721.49 2944.13C4742.85 2927.09 4770.31 2904.62 4782.51 2894.18C4794.71 2883.74 4814.18 2866.77 4825.78 2856.46C4837.37 2846.16 4854.35 2830.72 4863.5 2822.16C4872.65 2813.6 4896.93 2790.16 4917.45 2770.07C4937.97 2749.98 4969.95 2717.48 4988.51 2697.83C5007.07 2678.19 5029.65 2653.63 5038.68 2643.26C5047.71 2632.89 5055.71 2623.9 5056.45 2623.29C5057.19 2622.68 5072.32 2604.71 5090.08 2583.35C5107.83 2562 5129.73 2535.04 5138.73 2523.44C5147.74 2511.85 5163.69 2490.88 5174.18 2476.85C5184.67 2462.81 5204.21 2435.85 5217.61 2416.94C5231 2398.02 5247.5 2374.06 5254.28 2363.68C5261.06 2353.31 5272.1 2336.33 5278.81 2325.96C5285.53 2315.59 5301.53 2289.63 5314.38 2268.27C5327.22 2246.91 5343.73 2218.96 5351.05 2206.14C5358.37 2193.33 5368.13 2175.85 5372.74 2167.31C5377.35 2158.77 5391.3 2131.81 5403.75 2107.4C5416.21 2082.99 5431.67 2051.54 5438.11 2037.51C5444.56 2023.47 5452.59 2006 5455.96 1998.68C5459.33 1991.35 5467.84 1971.88 5474.88 1955.41C5481.91 1938.93 5492.09 1914.47 5497.49 1901.05C5502.9 1887.62 5512.34 1863.16 5518.48 1846.68C5524.61 1830.21 5533.57 1805.25 5538.39 1791.21C5543.2 1777.18 5551.66 1751.72 5557.18 1734.63C5562.7 1717.54 5569.73 1695.08 5572.8 1684.7C5575.87 1674.33 5580.87 1656.86 5583.91 1645.87C5586.95 1634.89 5590.92 1620.41 5592.72 1613.7C5594.53 1606.99 5599.37 1588.02 5603.5 1571.54C5607.62 1555.07 5613.57 1529.61 5616.71 1514.96C5619.86 1500.32 5623.84 1481.84 5625.56 1473.91C5627.28 1465.98 5630.71 1449 5633.19 1436.19C5635.66 1423.38 5639.76 1399.91 5642.29 1384.05C5644.82 1368.18 5648.31 1346.21 5650.04 1335.23C5651.78 1324.25 5655.21 1299.29 5657.67 1279.76C5660.14 1260.23 5663.75 1227.93 5665.7 1207.98C5667.65 1188.02 5668.92 1171.37 5668.52 1170.98C5668.13 1170.58 5593.79 1154.7 5503.32 1135.7C5412.85 1116.69 5338.31 1101.14 5337.66 1101.14C5337.01 1101.14 5335.92 1107.38 5335.24 1115.01ZM5954.36 1992.58C5949.64 2005.7 5941.36 2027.91 5935.97 2041.94C5930.58 2055.98 5925.24 2069.46 5924.1 2071.9C5922.97 2074.34 5917.62 2087.32 5912.21 2100.75C5906.81 2114.17 5898.71 2133.64 5894.22 2144.01C5889.73 2154.39 5884.72 2165.87 5883.08 2169.53C5881.44 2173.19 5876.48 2184.18 5872.05 2193.94C5867.63 2203.7 5859.34 2221.67 5853.64 2233.88C5847.94 2246.08 5833.01 2276.54 5820.47 2301.55C5807.93 2326.57 5793.36 2355.03 5788.1 2364.79C5782.83 2374.56 5772.2 2394.03 5764.47 2408.06C5756.74 2422.09 5743.44 2445.56 5734.92 2460.2C5726.4 2474.85 5713.39 2496.82 5706.01 2509.02C5698.63 2521.22 5682.08 2547.68 5669.24 2567.82C5656.4 2587.96 5636.44 2618.41 5624.88 2635.5C5613.33 2652.58 5594.45 2679.87 5582.92 2696.14C5571.39 2712.41 5550.92 2740.36 5537.42 2758.27C5523.92 2776.17 5497.71 2809.79 5479.18 2832.98C5460.65 2856.16 5432.16 2890.61 5415.87 2909.53C5399.59 2928.44 5376.81 2954.4 5365.25 2967.22C5353.69 2980.03 5323.99 3011.59 5299.24 3037.36C5274.48 3063.12 5234.44 3103.06 5210.25 3126.11C5186.06 3149.16 5157.3 3176.11 5146.35 3185.98C5135.4 3195.85 5117.36 3211.83 5106.26 3221.48C5095.16 3231.13 5080.21 3244.02 5073.04 3250.13C5065.87 3256.23 5054.48 3265.67 5047.73 3271.11C5040.99 3276.55 5034.96 3281.56 5034.35 3282.24C5033.74 3282.92 5023.76 3291.04 5012.16 3300.29C5000.57 3309.54 4979.56 3326 4965.47 3336.87C4951.38 3347.74 4929.91 3363.93 4917.76 3372.84C4905.61 3381.76 4885.19 3396.6 4872.38 3405.83C4859.56 3415.06 4825.43 3438.38 4796.54 3457.66C4767.64 3476.93 4726.2 3503.59 4704.45 3516.89C4682.7 3530.2 4647.44 3551.12 4626.08 3563.38C4604.72 3575.65 4567.78 3596.1 4543.98 3608.82C4520.18 3621.55 4478.02 3643.15 4450.28 3656.83C4422.54 3670.51 4399.42 3681.7 4398.9 3681.7C4398.37 3681.7 4388.12 3686.3 4376.1 3691.93C4364.09 3697.56 4334.3 3710.61 4309.89 3720.94C4285.48 3731.26 4262.52 3741.02 4258.85 3742.61C4255.19 3744.2 4245.71 3748.04 4237.77 3751.13C4229.84 3754.22 4214.37 3760.23 4203.38 3764.48C4192.4 3768.74 4170.93 3776.72 4155.68 3782.24C4140.42 3787.75 4106.97 3799.24 4081.34 3807.79C4055.72 3816.33 4021.77 3827.32 4005.9 3832.21C3990.04 3837.1 3964.57 3844.61 3949.32 3848.9C3934.07 3853.18 3908.6 3860.15 3892.74 3864.38C3876.87 3868.62 3843.92 3876.7 3819.52 3882.34C3795.11 3887.99 3771.14 3893.59 3766.26 3894.79C3761.38 3895.98 3739.91 3900.37 3718.56 3904.54C3697.2 3908.71 3668.24 3914.17 3654.21 3916.69C3640.17 3919.2 3619.71 3922.72 3608.72 3924.51C3597.74 3926.3 3574.77 3929.78 3557.69 3932.24C3540.6 3934.7 3510.65 3938.68 3491.12 3941.08C3471.59 3943.48 3449.13 3946.05 3441.2 3946.79C3433.26 3947.53 3418.29 3949.1 3407.91 3950.29C3397.54 3951.48 3367.09 3953.96 3340.24 3955.8C3313.39 3957.64 3266.46 3960.23 3235.95 3961.56C3203.11 3963 3139.28 3963.47 3079.52 3962.73C3013.41 3961.9 2956.35 3959.92 2914.21 3956.97C2878.82 3954.5 2845.87 3951.96 2840.99 3951.32C2836.11 3950.68 2817.64 3948.67 2799.94 3946.86C2782.24 3945.04 2755.52 3942.08 2740.55 3940.28C2725.58 3938.47 2696.63 3934.48 2676.2 3931.42C2655.78 3928.35 2630.08 3924.38 2619.1 3922.59C2608.12 3920.8 2588.15 3917.37 2574.72 3914.96C2561.3 3912.55 2533.34 3907.07 2512.59 3902.76C2491.85 3898.46 2467.38 3893.34 2458.23 3891.39C2449.08 3889.43 2419.12 3882.32 2391.67 3875.58C2364.21 3868.84 2330.76 3860.28 2317.33 3856.57C2303.91 3852.85 2284.44 3847.37 2274.06 3844.39C2263.69 3841.4 2252.71 3838.12 2249.66 3837.1C2246.61 3836.07 2236.62 3833.01 2227.47 3830.29C2218.32 3827.58 2193.35 3819.56 2172 3812.47C2150.64 3805.39 2117.69 3794.1 2098.77 3787.39C2079.86 3780.68 2058.39 3772.97 2051.07 3770.27C2043.74 3767.56 2016.79 3756.98 1991.16 3746.74C1965.53 3736.51 1941.57 3726.71 1937.9 3724.97C1934.24 3723.23 1920.62 3717.3 1907.64 3711.79C1894.65 3706.28 1874.18 3697.17 1862.15 3691.54C1850.12 3685.9 1823.78 3673.4 1803.61 3663.74C1783.45 3654.08 1747.5 3636.09 1723.73 3623.76C1699.96 3611.43 1667.03 3593.83 1650.56 3584.65C1634.08 3575.47 1607.7 3560.45 1591.92 3551.28C1576.14 3542.11 1549.68 3526.16 1533.12 3515.85C1516.56 3505.53 1495.02 3491.98 1485.25 3485.72C1475.49 3479.45 1452.52 3464.26 1434.22 3451.95C1415.91 3439.64 1392.45 3423.7 1382.07 3416.52C1371.7 3409.35 1342.04 3387.75 1316.16 3368.53C1290.29 3349.31 1254.42 3321.8 1236.46 3307.39C1218.49 3292.98 1200.73 3278.73 1196.97 3275.72C1193.21 3272.71 1176.66 3258.77 1160.19 3244.73C1143.71 3230.69 1116.25 3206.73 1099.17 3191.48C1082.08 3176.24 1059.13 3155.24 1048.17 3144.82C1037.21 3134.4 1007.24 3104.9 981.569 3079.27C955.903 3053.64 926.871 3024.19 917.057 3013.81C907.241 3003.44 889.776 2984.47 878.242 2971.66C866.711 2958.84 850.672 2940.87 842.605 2931.72C834.537 2922.56 819.069 2904.45 808.23 2891.46C797.39 2878.48 782.437 2860.5 775 2851.52C767.56 2842.54 750.521 2821.22 737.137 2804.13C723.75 2787.05 697.397 2752.1 678.569 2726.47C659.744 2700.84 627.238 2654.25 606.336 2622.94C585.434 2591.63 556.815 2547.2 542.738 2524.2C528.662 2501.21 510.234 2470.41 501.784 2455.77C493.335 2441.12 479.622 2416.66 471.313 2401.4C463.003 2386.15 452.951 2367.68 448.975 2360.35C445.001 2353.03 431.251 2326.07 418.421 2300.44C405.592 2274.82 388.009 2238.54 379.351 2219.83C370.693 2201.12 363.608 2185.49 363.608 2185.1C363.608 2184.71 359.743 2176.06 355.017 2165.87C350.293 2155.68 341.439 2135.36 335.342 2120.72C329.246 2106.07 319.301 2081.61 313.244 2066.35C307.186 2051.1 299.371 2031.13 295.874 2021.97C292.38 2012.82 289.309 2005.01 289.049 2004.61C288.79 2004.22 232.319 2031.29 163.56 2064.77C94.7994 2098.25 29.8706 2130.03 19.271 2135.38L0 2145.12L8.44283 2166.2C13.0869 2177.8 23.3781 2203.26 31.3129 2222.78C39.2476 2242.31 53.4329 2275.76 62.8365 2297.12C72.2401 2318.47 85.5711 2347.93 92.463 2362.57C99.3548 2377.22 117.212 2413.66 132.143 2443.56C147.076 2473.46 165.626 2509.91 173.366 2524.55C181.107 2539.2 191.132 2557.47 195.645 2565.17C200.156 2572.86 203.849 2579.54 203.849 2580C203.849 2580.47 214.191 2598.64 226.834 2620.38C239.475 2642.12 255.551 2669.39 262.554 2680.98C269.559 2692.58 278.818 2707.55 283.129 2714.27C287.443 2720.98 292.806 2729.47 295.049 2733.13C297.295 2736.79 316.324 2765.74 337.336 2797.47C358.352 2829.2 384.492 2867.65 395.431 2882.9C406.368 2898.16 428.331 2928.11 444.233 2949.47C460.136 2970.82 488.691 3007.77 507.689 3031.57C526.685 3055.36 560.625 3096.3 583.106 3122.54C605.59 3148.78 628.653 3175.24 634.356 3181.34C640.058 3187.44 651.071 3199.42 658.83 3207.97C666.587 3216.51 691.452 3242.83 714.087 3266.46C736.722 3290.09 776.708 3330.04 802.947 3355.24C829.185 3380.44 869.624 3417.93 892.811 3438.54C915.999 3459.16 943.349 3483.11 953.586 3491.77C963.827 3500.43 976.308 3510.83 981.322 3514.89C986.339 3518.94 993.005 3524.53 996.138 3527.3C999.271 3530.08 1018.74 3545.78 1039.41 3562.2C1060.07 3578.62 1085.47 3598.54 1095.84 3606.45C1106.21 3614.37 1131.17 3632.86 1151.31 3647.54C1171.45 3662.22 1208.39 3688.3 1233.41 3705.49C1258.43 3722.68 1297.37 3748.48 1319.95 3762.82C1342.52 3777.15 1369.98 3794.34 1380.97 3801.01C1391.95 3807.67 1411.42 3819.32 1424.23 3826.9C1437.05 3834.47 1455.52 3845.2 1465.28 3850.73C1475.05 3856.25 1487.66 3863.4 1493.32 3866.6C1498.99 3869.8 1521.45 3882.02 1543.25 3893.75C1565.05 3905.49 1611.05 3928.98 1645.47 3945.95C1679.89 3962.92 1708.5 3976.81 1709.03 3976.81C1709.57 3976.81 1721.66 3982.3 1735.89 3989.01C1750.12 3995.73 1762.18 4001.22 1762.69 4001.22C1763.19 4001.22 1769.88 4004.08 1777.53 4007.57C1785.19 4011.06 1803.94 4019.11 1819.19 4025.45C1834.45 4031.79 1849.93 4038.29 1853.59 4039.89C1857.25 4041.5 1874.22 4048.35 1891.31 4055.11C1908.39 4061.87 1934.85 4072.09 1950.11 4077.82C1965.36 4083.55 1989.33 4092.2 2003.36 4097.03C2017.4 4101.87 2046.35 4111.68 2067.71 4118.85C2089.07 4126.01 2124.51 4137.29 2146.48 4143.92C2168.45 4150.54 2199.9 4159.69 2216.37 4164.25C2232.85 4168.81 2250.82 4173.87 2256.31 4175.51C2261.81 4177.14 2280.71 4182.05 2298.34 4186.42C2315.96 4190.79 2330.85 4194.83 2331.43 4195.42C2332.02 4196 1821.1 4196.48 1196.06 4196.48H59.6213V4365.11V4533.75H3122.79H6185.95V4365.11V4196.48H5049.51C4424.48 4196.48 3913.56 4196 3914.14 4195.42C3914.72 4194.83 3929.62 4190.76 3947.24 4186.37C3964.86 4181.97 3998.75 4172.91 4022.54 4166.22C4046.34 4159.54 4082.29 4149.08 4102.42 4142.98C4122.56 4136.88 4158.01 4125.54 4181.19 4117.79C4204.38 4110.03 4237.33 4098.72 4254.42 4092.64C4271.5 4086.57 4287.98 4080.54 4291.03 4079.25C4294.08 4077.95 4308.56 4072.42 4323.2 4066.95C4337.85 4061.47 4361.31 4052.34 4375.35 4046.65C4389.38 4040.97 4410.35 4032.36 4421.94 4027.52C4433.54 4022.69 4449.01 4016.14 4456.33 4012.97C4463.66 4009.8 4478.98 4002.86 4490.38 3997.55C4501.78 3992.25 4511.46 3987.9 4511.88 3987.9C4512.31 3987.9 4521.45 3983.77 4532.2 3978.72C4542.95 3973.67 4570.72 3960.37 4593.91 3949.17C4617.09 3937.97 4654.54 3919.01 4677.11 3907.04C4699.69 3895.07 4732.64 3877.25 4750.34 3867.45C4768.03 3857.66 4794.49 3842.59 4809.14 3833.96C4823.78 3825.33 4838.32 3816.75 4841.44 3814.89C4844.57 3813.03 4855.05 3806.73 4864.74 3800.91C4874.43 3795.08 4895.84 3781.74 4912.31 3771.27C4928.79 3760.79 4962.74 3738.53 4987.76 3721.78C5012.77 3705.04 5047.72 3681 5065.42 3668.36C5083.11 3655.72 5113.57 3633.42 5133.09 3618.8C5152.62 3604.18 5185.5 3578.65 5206.15 3562.07C5226.81 3545.49 5250.38 3526.43 5258.53 3519.72C5266.68 3513.01 5281.74 3500.44 5291.98 3491.78C5302.22 3483.13 5329.55 3459.16 5352.7 3438.53C5375.85 3417.89 5416.29 3380.4 5442.56 3355.23C5468.84 3330.04 5509.33 3289.6 5532.56 3265.36C5555.78 3241.11 5584.69 3210.3 5596.81 3196.87C5608.93 3183.45 5619.4 3171.97 5620.09 3171.36C5620.78 3170.75 5633.88 3155.77 5649.2 3138.07C5664.51 3120.38 5691.45 3088.28 5709.06 3066.76C5726.66 3045.23 5746.14 3021.27 5752.34 3013.51C5758.53 3005.74 5771.6 2988.91 5781.38 2976.09C5791.16 2963.28 5810.13 2937.82 5823.55 2919.51C5836.96 2901.21 5852.6 2879.49 5858.3 2871.25C5863.99 2863.01 5873.34 2849.54 5879.07 2841.3C5884.79 2833.06 5895.18 2817.83 5902.14 2807.46C5909.1 2797.09 5923.2 2775.62 5933.47 2759.75C5943.74 2743.89 5960.97 2716.43 5971.77 2698.73C5982.56 2681.04 5993.62 2663.07 5996.33 2658.79C5999.05 2654.52 6008.23 2639.05 6016.73 2624.4C6025.23 2609.76 6041.71 2580.3 6053.35 2558.94C6064.99 2537.59 6079.75 2510.13 6086.15 2497.93C6092.55 2485.72 6105.01 2461.26 6113.83 2443.56C6122.66 2425.87 6134.9 2400.9 6141.04 2388.09C6147.18 2375.28 6157.35 2353.47 6163.65 2339.64C6169.94 2325.81 6180.63 2301.84 6187.4 2286.39C6194.17 2270.93 6203.21 2249.8 6207.49 2239.43C6211.77 2229.05 6218.71 2212.08 6222.9 2201.7C6227.09 2191.33 6236.58 2167.03 6243.98 2147.7C6251.56 2127.9 6256.6 2111.71 6255.52 2110.63C6254.46 2109.57 6189.01 2077.21 6110.07 2038.71C6031.13 2000.22 5965.74 1968.72 5964.75 1968.72C5963.76 1968.73 5959.09 1979.46 5954.36 1992.58ZM6101.64 2001.77C6101.64 2002.86 6103.27 2004.38 6105.28 2005.15C6108.32 2006.32 6108.46 2005.99 6106.12 2003.17C6104.57 2001.31 6102.93 1999.79 6102.47 1999.79C6102.01 1999.79 6101.64 2000.68 6101.64 2001.77ZM365.827 5167.24V5334.77H3122.79H5879.75V5167.24V4999.71H3122.79H365.827V5167.24ZM1186.81 5969.37V6138H3122.79H5058.76V5969.37V5800.73H3122.79H1186.81V5969.37Z"
        fill="white" />
</svg>